<svg id="visual" viewBox="0 0 900 675" width="900" height="675" xmlns="http://www.w3.org/2000/svg" xmlns:xlink="http://www.w3.org/1999/xlink" version="1.1"><rect x="0" y="0" width="900" height="675" fill="#bfdbfe"></rect><defs><linearGradient id="grad1_0" x1="25%" y1="100%" x2="100%" y2="0%"><stop offset="23.333333333333336%" stop-color="#3b82f6" stop-opacity="1"></stop><stop offset="76.66666666666666%" stop-color="#3b82f6" stop-opacity="1"></stop></linearGradient></defs><defs><linearGradient id="grad1_1" x1="25%" y1="100%" x2="100%" y2="0%"><stop offset="23.333333333333336%" stop-color="#3b82f6" stop-opacity="1"></stop><stop offset="76.66666666666666%" stop-color="#bfdbfe" stop-opacity="1"></stop></linearGradient></defs><defs><linearGradient id="grad2_0" x1="0%" y1="100%" x2="75%" y2="0%"><stop offset="23.333333333333336%" stop-color="#3b82f6" stop-opacity="1"></stop><stop offset="76.66666666666666%" stop-color="#3b82f6" stop-opacity="1"></stop></linearGradient></defs><defs><linearGradient id="grad2_1" x1="0%" y1="100%" x2="75%" y2="0%"><stop offset="23.333333333333336%" stop-color="#bfdbfe" stop-opacity="1"></stop><stop offset="76.66666666666666%" stop-color="#3b82f6" stop-opacity="1"></stop></linearGradient></defs><g transform="translate(900, 675)"><path d="M-337.5 0C-281.3 -20.4 -225.2 -40.9 -208.3 -67.7C-191.4 -94.5 -213.7 -127.6 -213.6 -155.2C-213.4 -182.7 -190.7 -204.7 -170.5 -234.6C-150.2 -264.6 -132.3 -302.5 -104.3 -321C-76.3 -339.5 -38.1 -338.5 0 -337.5L0 0Z" fill="#7cb0fc"></path><path d="M-168.7 0C-140.7 -10.2 -112.6 -20.4 -104.1 -33.8C-95.7 -47.2 -106.9 -63.8 -106.8 -77.6C-106.7 -91.4 -95.4 -102.3 -85.2 -117.3C-75.1 -132.3 -66.2 -151.3 -52.1 -160.5C-38.1 -169.7 -19.1 -169.2 0 -168.7L0 0Z" fill="#3b82f6"></path></g><g transform="translate(0, 0)"><path d="M337.5 0C302.2 28.2 266.9 56.5 249.2 81C231.4 105.4 231.3 126.1 230.6 167.5C229.9 208.9 228.7 271 198.4 273C168.1 275.1 108.7 217.1 70.8 217.8C32.9 218.5 16.4 278 0 337.5L0 0Z" fill="#7cb0fc"></path><path d="M168.8 0C151.1 14.1 133.5 28.2 124.6 40.5C115.7 52.7 115.6 63.1 115.3 83.8C114.9 104.5 114.3 135.5 99.2 136.5C84 137.5 54.3 108.5 35.4 108.9C16.4 109.3 8.2 139 0 168.8L0 0Z" fill="#3b82f6"></path></g></svg>