<svg id="visual" viewBox="0 0 900 600" width="900" height="600" xmlns="http://www.w3.org/2000/svg" xmlns:xlink="http://www.w3.org/1999/xlink" version="1.1"><rect width="900" height="600" fill="#bfdbfe"></rect><g><g transform="translate(628 359)"><path d="M64.4 -68.2C83.3 -45.5 98.4 -22.7 100 1.6C101.7 26 89.8 52 70.9 69.8C52 87.5 26 97.1 -0.4 97.5C-26.9 97.9 -53.7 89.3 -77.5 71.5C-101.2 53.7 -121.8 26.9 -119.4 2.4C-117 -22.1 -91.6 -44.2 -67.9 -66.9C-44.2 -89.7 -22.1 -113.1 0.3 -113.4C22.7 -113.7 45.5 -91 64.4 -68.2Z" fill="#3b82f6"></path></g><g transform="translate(297 369)"><path d="M64.4 -66.8C79.2 -49.7 83.8 -24.8 79.7 -4.2C75.5 16.5 62.5 33 47.7 47.7C33 62.5 16.5 75.5 -1.9 77.3C-20.2 79.2 -40.4 69.9 -53.8 55.2C-67.2 40.4 -73.7 20.2 -74 -0.3C-74.2 -20.8 -68.3 -41.5 -54.9 -58.7C-41.5 -75.9 -20.8 -89.4 2 -91.4C24.8 -93.5 49.7 -84 64.4 -66.8Z" fill="#3b82f6"></path></g><g transform="translate(449 15)"><path d="M60.7 -63.2C76.4 -44.9 85.5 -22.5 86.3 0.8C87.1 24.1 79.7 48.2 64 63.3C48.2 78.4 24.1 84.5 2 82.5C-20 80.5 -40 70.3 -57.6 55.2C-75.2 40 -90.3 20 -90.5 -0.2C-90.7 -20.3 -75.8 -40.7 -58.2 -58.9C-40.7 -77.2 -20.3 -93.4 1.1 -94.5C22.5 -95.5 44.9 -81.5 60.7 -63.2Z" fill="#3b82f6"></path></g><g transform="translate(855 14)"><path d="M47.8 -43.8C62.5 -33.2 75 -16.6 77.8 2.8C80.6 22.1 73.5 44.3 58.9 58.9C44.3 73.5 22.1 80.6 -0.3 80.9C-22.7 81.2 -45.4 74.7 -59.7 60C-74 45.4 -79.9 22.7 -76 3.9C-72.1 -14.9 -58.4 -29.8 -44.1 -40.4C-29.8 -51 -14.9 -57.3 0.9 -58.2C16.6 -59.1 33.2 -54.5 47.8 -43.8Z" fill="#3b82f6"></path></g><g transform="translate(13 24)"><path d="M56.8 -56.8C69.4 -44.1 72.7 -22.1 70.1 -2.6C67.4 16.8 58.9 33.6 46.3 50.3C33.6 66.9 16.8 83.4 -2.2 85.5C-21.2 87.7 -42.3 75.6 -54 58.9C-65.7 42.3 -67.9 21.2 -67.9 0C-67.9 -21.1 -65.6 -42.2 -53.9 -54.9C-42.2 -67.7 -21.1 -71.9 0.5 -72.4C22.1 -72.9 44.1 -69.5 56.8 -56.8Z" fill="#3b82f6"></path></g></g></svg>