<svg id="visual" viewBox="0 0 900 600" width="900" height="600" xmlns="http://www.w3.org/2000/svg" xmlns:xlink="http://www.w3.org/1999/xlink" version="1.1"><rect x="0" y="0" width="900" height="600" fill="#fff"></rect><path d="M0 515L21.5 506.7C43 498.3 86 481.7 128.8 479.3C171.7 477 214.3 489 257.2 477.8C300 466.7 343 432.3 385.8 433.8C428.7 435.3 471.3 472.7 514.2 471C557 469.3 600 428.7 642.8 411.8C685.7 395 728.3 402 771.2 422.8C814 443.7 857 478.3 878.5 495.7L900 513L900 601L878.5 601C857 601 814 601 771.2 601C728.3 601 685.7 601 642.8 601C600 601 557 601 514.2 601C471.3 601 428.7 601 385.8 601C343 601 300 601 257.2 601C214.3 601 171.7 601 128.8 601C86 601 43 601 21.5 601L0 601Z" fill="#3b82f6" stroke-linecap="round" stroke-linejoin="miter"></path></svg>